PathFileType	4	(X/Y/Z)	Patient4_TMGait_0pt7_02_right_42.trc.trc
DataRate	CameraRate	NumFrames	NumMarkers	Units	OrigDataRate	OrigDataStartFrame	OrigNumFrames
84.848484848485	84.848484848485	7	33	mm	84.848484848485	71	       141
Frame#	Time	Sacral			L.Shoulder			Chest			R.Shoulder			Neck			R.ASIS			L.ASIS			R.Thigh.Superior			R.Thigh.Lateral			R.Thigh.Inferior			R.Patella			L.Thigh.Superior			L.Thigh.Lateral			L.Thigh.Inferior			L.Patella			L.Shank.Superior			L.Shank.Lateral			L.Shank.Inferior			R.Shank.Superior			R.Shank.Lateral			R.Shank.Inferior			R.Heel			R.Midfoot.Superior			R.Midfoot.Lateral			R.Toe			L.Heel			L.Midfoot.Lateral			L.Midfoot.Superior			L.Toe			L.Elbow			L.Wrist			R.Elbow			R.Wrist			
		X1	Y1	Z1	X2	Y2	Z2	X3	Y3	Z3	X4	Y4	Z4	X5	Y5	Z5	X6	Y6	Z6	X7	Y7	Z7	X8	Y8	Z8	X9	Y9	Z9	X10	Y10	Z10	X11	Y11	Z11	X12	Y12	Z12	X13	Y13	Z13	X14	Y14	Z14	X15	Y15	Z15	X16	Y16	Z16	X17	Y17	Z17	X18	Y18	Z18	X19	Y19	Z19	X20	Y20	Z20	X21	Y21	Z21	X22	Y22	Z22	X23	Y23	Z23	X24	Y24	Z24	X25	Y25	Z25	X26	Y26	Z26	X27	Y27	Z27	X28	Y28	Z28	X29	Y29	Z29	X30	Y30	Z30	X31	Y31	Z31	X32	Y32	Z32	X33	Y33	Z33	

71	48.365000000000	710.936198378977	1002.725986116989	515.676789196071	887.140917350868	1418.342805013895	321.877864809970	1002.785505943281	1345.238280335905	473.381064501430	939.336720016331	1427.748529239890	651.924217154409	903.719248769977	1479.968805353817	476.525448476216	933.436661289119	933.343695857453	633.999546131001	919.431204148506	938.205369475932	357.660927480720	923.104488701150	719.751645409435	611.050476279490	808.199507130365	632.005785166878	666.335848530561	869.000248668110	562.035994866391	591.269430688361	846.772982141420	477.586247275928	594.031304919122	993.261131741556	765.036745485394	393.548363233467	952.669361093920	634.410471035054	309.762650587394	1058.421831568807	580.970134256790	374.193444688524	1089.261084888803	516.531043555745	370.098117704112	1072.817735805156	443.046743529011	360.197269331660	1007.691953694677	311.963222716640	310.536652915340	1095.613005014938	214.062152995237	365.937542823137	804.740329442667	397.991486575123	596.983046614038	717.862800822252	304.423167008667	655.590288424876	748.239864787908	205.637699597744	589.777226989428	596.838441957415	48.127467106152	554.822500344556	770.825329337963	97.038564138965	590.394805197928	680.923404096877	38.119024903053	627.319066117338	889.148192133596	38.447401470744	614.543151034474	1010.797610700927	38.842462998849	403.196039695252	1086.999945993462	41.739165775367	324.949250059942	1160.425609627566	114.416047292355	348.926530477246	1293.482305561707	78.462430590661	325.952283814541	702.551909333644	1119.951658578568	239.146437239082	637.032481091469	869.659921209200	287.018570966255	1095.641731562408	1135.223203497029	775.656552807379	1328.116730837241	1169.686002343531	677.887349574181	
72	48.376785714286	712.074538077292	1001.386213347243	512.457030277087	887.437592665667	1417.395967112895	319.465299490965	1002.851007137473	1344.813352696422	471.417449361487	938.373394050361	1426.966997580204	649.755991264702	903.438151264089	1479.173153655378	474.149715643855	934.359404371546	932.112137925964	631.693853185042	921.242494776481	937.234378723290	355.503294960135	923.152013469641	718.472313047654	609.057683197238	807.364185987870	631.606943972191	664.450482399061	867.687459945874	560.922317118898	589.757378924131	844.416650022061	476.356081972009	592.497983322076	993.943411254068	761.855084234600	391.367536191001	950.214793706044	631.114110572058	309.559644907651	1055.746819402840	577.111138413969	373.780105279430	1085.153298021083	512.621479710819	370.673570965795	1069.109030468342	439.389392341655	360.777709259563	1003.777937498040	307.947493936482	312.932512746661	1092.063149711547	210.643923044254	368.482864643839	801.287603543010	397.161738281624	595.776061606037	713.158527259000	305.077962491409	654.898508100381	742.005303100357	205.632153156921	589.506860730978	588.725294724547	49.369339098162	555.154871268600	762.859452371076	97.152290220018	590.524677356813	672.777602769822	38.565163295885	627.581034621719	880.931130313228	38.254333316943	614.623647049889	1006.342798351484	37.572719772887	407.048077513805	1082.250273445974	39.570036208208	328.451862725594	1157.125177248539	110.166261280930	352.731764201166	1289.425248224939	71.521925128147	329.106390092415	702.225339918792	1119.787722732401	236.999903952964	635.603030506357	869.917178435213	286.353735951916	1096.531413241184	1135.549579104704	772.906277410863	1326.738726806495	1177.619054991285	674.056001422861	
73	48.388571428571	713.251742033806	1000.481022623949	509.265555165238	887.871790257159	1416.763213755415	316.912724844340	1003.105505394363	1344.668439235617	469.267203388909	937.708113547176	1426.479839174436	647.444099868735	903.379245280748	1478.704950015384	471.612849975300	935.349298338293	931.120753595926	629.161918582800	922.952645134436	936.663085338100	353.138039828610	923.240550150553	717.435932314954	606.955412305082	806.619815601869	631.444731954509	662.466602969059	866.542809079654	560.033792527529	588.191022271651	842.274644576087	475.308871204596	590.949712432652	994.806428295113	759.603226766242	389.003750174789	948.223032762685	628.737192537333	309.310741945936	1053.664319230133	574.351182685618	373.182084672399	1081.504029733685	509.486588661954	371.219031096288	1065.669072821493	436.311861925133	361.310900059535	999.756310047314	304.898186591681	314.728946777892	1087.564017667402	207.674167697900	370.718285283403	798.015820087414	396.545598793982	594.602089392377	708.557963667997	306.045466028070	654.199185937206	735.928062880092	205.901806141776	589.345399418970	580.683991314515	51.041402475131	555.600179904479	755.102131744278	97.374217066335	590.785589658207	664.698708349437	39.184604488080	627.918887420500	872.741214819820	38.076111073324	614.685639580420	999.978488336199	36.958564242968	410.176283084086	1075.717572811415	37.990275814613	331.334108540134	1152.186225352979	106.330809128226	356.157054528589	1283.708722988917	64.720950481891	332.011244001947	702.942674372853	1119.265969616311	234.495061502287	635.827722913507	869.621846210176	285.069760101356	1096.640845545357	1135.472832816789	770.242189585999	1324.679455806124	1184.251875133010	670.589372546797	
74	48.400357142857	714.432562392729	1000.096258070274	506.126344356022	888.464933304615	1416.495170803687	314.241756912874	1003.568201548907	1344.815038192047	466.935158808456	937.414778071885	1426.334644793996	644.992259932828	903.581419485593	1478.606155293744	468.938688656474	936.339302532428	930.440075511919	626.427279709351	924.524864724869	936.525496149097	350.555606500096	923.300619795418	716.709878246173	604.770843858221	805.944974112115	631.548855886539	660.409213357891	865.578311001523	559.422247296829	586.586058678364	840.398971735971	474.462168704912	589.443733015765	995.813901722103	758.368331091936	386.512373159252	946.763736950205	627.373542739620	308.917877091706	1052.141136649540	572.699451599286	372.375146057355	1078.312025333308	507.192148548281	371.652174826277	1062.536413262734	433.904301692404	361.712417092629	995.835176329561	302.840796704218	315.715703823228	1082.387775526454	205.245251511919	372.496111864473	794.960177896578	396.169814382370	593.508852277723	704.075893086437	307.358605786654	653.506186439932	730.040214545086	206.474466440492	589.314461812281	572.735121664645	53.196850349287	556.164530067691	747.588037489750	97.710313875323	591.194380008251	656.699574488303	40.004210677066	628.329806524634	864.578197649102	37.920787149733	614.717053520917	992.264052036098	36.816138446537	412.445574686040	1067.954790357921	36.939921511694	333.460353031896	1145.965151172162	103.110345082267	358.976326452858	1276.778187540785	58.620322552432	334.470042129782	704.670687373765	1118.464843052480	231.641829249718	637.727115013965	868.821054256963	283.116148416653	1095.947363869842	1134.988230854265	767.689182833298	1322.018990929763	1189.528574671493	667.482435014118	
75	48.412142857143	715.585388003723	1000.282183120614	503.039443850025	889.229785106268	1416.621828297943	311.473642510875	1004.243154228963	1345.252249278745	464.433450967164	937.536763578091	1426.565966732044	642.405426159452	904.064044226027	1478.899348243730	466.152243127792	937.267542084164	930.130249941009	623.520796166555	925.943169431679	936.827886077813	347.756828063006	923.296150474934	716.352004976654	602.534486012730	805.354371809094	631.932366236952	658.308638362968	864.845302717956	559.125033498833	584.965731351573	838.880349639393	473.815525227256	588.052849832979	996.920737517463	758.146524538752	383.955605769339	945.852661828295	627.036333298023	308.273482650962	1051.067534731217	572.055545231016	371.327371139312	1075.503549517074	505.709553236697	371.848745748636	1059.669418578178	432.179412972162	361.882650246632	992.093713756888	301.710624072598	315.801175895787	1076.748362079405	203.394422636078	373.727100212105	792.187896879845	396.045943429605	592.548271407340	699.755306435242	309.040558081435	652.838560206998	724.389013599296	207.367628230457	589.435939868663	564.905856699595	55.889725522508	556.849188789920	740.348015785980	98.159272053351	591.760814461592	648.794140549577	41.053827597167	628.806935756951	856.439860032497	37.789795156446	614.708451303966	983.708542780302	36.974601068804	413.849832473263	1059.444799583513	36.327725472287	334.807208695317	1138.797059436871	100.617252808666	361.058638927752	1269.027245325528	53.606433031343	336.353438838993	707.338399133612	1117.475921375868	228.462113632453	641.296766426127	867.581085545756	280.453137728522	1094.429930891802	1134.116621151839	765.261644339527	1318.835402328600	1193.395425647943	664.725118017552	
76	48.423928571429	716.684883496358	1001.046626230151	499.981634931327	890.168399081562	1417.147995613108	308.626245567625	1005.117326589343	1345.967289405983	461.780683471863	938.076615766324	1427.190368265157	639.689412850728	904.822400267894	1479.584048721039	463.276144492921	938.083990041146	930.233205134263	620.478467706761	927.214127914978	937.547110460021	344.756694568136	923.231914704832	716.401006243725	600.281463603634	804.898920541534	632.586571741121	656.199466459804	864.433518325802	559.157697821844	583.362440021039	837.843739636687	473.346716286327	586.860999922511	998.068036886982	758.827508170648	381.385804756242	945.420100760152	627.637708448580	307.287191251781	1050.259191815529	572.214731360516	370.007612604214	1072.932189069785	504.918345878684	371.679423711308	1056.948208919828	431.071714042087	361.732557052747	988.481552987516	301.356952957387	315.028683459766	1070.793068463774	202.096048480388	374.390208523564	789.795487379045	396.166755324573	591.770418097238	695.668560172898	311.101446125050	652.218316856310	719.035249089815	208.587210296793	589.728087570406	557.231433903715	59.175186777336	557.647138832533	733.408025956425	98.714822243070	592.485818853917	640.996801215088	42.369118790752	629.338290724149	848.321721285092	37.675506760958	614.655606011387	974.730078433167	37.288112155331	414.485605708550	1050.571493679869	36.045541897114	335.446015417988	1130.980283384315	98.865089640890	362.381612562108	1260.781368478768	49.854386027145	337.620377916083	710.839762691106	1116.394001971607	224.986272018563	646.506186355465	865.982042664587	277.056457120857	1092.070477646195	1132.906970414699	762.962029120522	1315.202291581860	1195.802977663888	662.303192590787	
77	48.435714285714	717.712602966568	1002.353649929687	496.912214126253	891.272384308771	1418.051422941642	305.711312390675	1006.161277369687	1346.937256059796	459.000693097607	938.990797366050	1428.203508187837	636.850649262184	905.827183336515	1480.635862035940	460.326575280758	938.753763518955	930.766002305691	617.339361976673	928.363595681448	938.633433828603	341.588821080247	923.156273729889	716.869170628685	598.050820794154	804.663633475499	633.477377544235	654.117950494648	864.467033518872	559.509131249090	581.815766296041	837.440896916127	473.010892561523	585.952380342551	999.180641943414	760.197230050604	378.827692416488	945.293210154578	628.987990088548	305.910227955649	1049.474685568929	572.896996042022	368.398183444185	1070.395020615964	504.632076770997	371.053264724108	1054.193910885073	430.456343962666	361.207081400559	984.849232886495	301.569658797291	313.558259425189	1064.607756765414	201.271110246380	374.527615949069	787.903761035064	396.504261776205	591.214066350298	691.917906648384	313.536005880369	651.665509902222	714.051222045093	210.127746785593	590.198410492166	549.757463407809	63.111107625346	558.537774795939	726.788664984455	99.370549106000	593.359049104846	633.322536072798	43.996217990377	629.904299900825	840.217321194696	37.559478599858	614.561830645438	965.638126391275	37.643506355744	414.514714645719	1041.610623818211	35.984082579677	335.512180111292	1122.764848574087	97.782520230594	363.017113359697	1252.291021328910	47.345157146236	338.311106684328	715.041671731891	1115.305481469304	221.249001173475	653.298968602302	864.110862977576	272.920896857159	1088.856311287843	1131.434786888814	760.780890691005	1311.185100667536	1196.708849877941	660.199492316895	
